<svg width="24" height="24" viewBox="0 0 24 24" fill="none" xmlns="http://www.w3.org/2000/svg">
<g clip-path="url(#clip0_897_3570)">
<path d="M7 13.1602C7.63606 13.9332 8.43868 14.5524 9.34782 14.9715C10.257 15.3906 11.2491 15.5986 12.25 15.5802C13.2509 15.5986 14.243 15.3906 15.1522 14.9715C16.0613 14.5524 16.8639 13.9332 17.5 13.1602" stroke="white" stroke-width="3" stroke-linecap="round" stroke-linejoin="round"/>
<path d="M14.6701 18.8901H9.83008V19.8101H14.6701V18.8901Z" fill="white" stroke="white" stroke-width="2.12" stroke-linecap="round" stroke-linejoin="round"/>
<path d="M15.75 6.5C15.75 4.567 14.183 3 12.25 3C10.317 3 8.75 4.567 8.75 6.5V9.14C8.75 11.073 10.317 12.64 12.25 12.64C14.183 12.64 15.75 11.073 15.75 9.14V6.5Z" fill="white"/>
<path d="M12.25 15.5801V18.3701" stroke="white" stroke-width="2.12" stroke-linecap="round" stroke-linejoin="round"/>
<g filter="url(#filter0_d_897_3570)">
<line x1="5" y1="19.1716" x2="19.1421" y2="5.02944" stroke="#F4137F" stroke-width="4" stroke-linecap="round"/>
</g>
</g>
<defs>
<filter id="filter0_d_897_3570" x="1" y="3.0293" width="22.1421" height="22.1421" filterUnits="userSpaceOnUse" color-interpolation-filters="sRGB">
<feFlood flood-opacity="0" result="BackgroundImageFix"/>
<feColorMatrix in="SourceAlpha" type="matrix" values="0 0 0 0 0 0 0 0 0 0 0 0 0 0 0 0 0 0 127 0" result="hardAlpha"/>
<feOffset dy="2"/>
<feGaussianBlur stdDeviation="1"/>
<feComposite in2="hardAlpha" operator="out"/>
<feColorMatrix type="matrix" values="0 0 0 0 0 0 0 0 0 0 0 0 0 0 0 0 0 0 0.2 0"/>
<feBlend mode="normal" in2="BackgroundImageFix" result="effect1_dropShadow_897_3570"/>
<feBlend mode="normal" in="SourceGraphic" in2="effect1_dropShadow_897_3570" result="shape"/>
</filter>
<clipPath id="clip0_897_3570">
<rect width="24" height="24" fill="white"/>
</clipPath>
</defs>
</svg>
