<svg width="24" height="24" viewBox="0 0 24 24" fill="none" xmlns="http://www.w3.org/2000/svg">
<g clip-path="url(#clip0_897_3577)">
<path fill-rule="evenodd" clip-rule="evenodd" d="M3 12.3084C3 7.57688 4.57167 6 9.28842 6C14.0043 6 15.576 7.57688 15.576 12.3084C15.576 17.039 14.0043 18.6168 9.28842 18.6168C4.57167 18.6168 3 17.039 3 12.3084Z" fill="white" stroke="white" stroke-linecap="round" stroke-linejoin="round"/>
<path d="M16.7173 12.2967C16.7173 14.0914 18.0172 15.6432 19.4548 16.4528C20.2959 16.9251 21.3201 16.5044 21.4123 15.5083C21.5045 14.5121 21.5881 13.5528 21.5881 12.2967C21.5881 11.0407 21.5194 9.89823 21.4123 9.08522C21.3053 8.27221 20.2959 7.66837 19.4548 8.14066C18.0172 8.95028 16.7173 10.5021 16.7173 12.2967Z" fill="white"/>
<g filter="url(#filter0_d_897_3577)">
<line x1="5" y1="19.1716" x2="19.1421" y2="5.02944" stroke="#F4137F" stroke-width="4" stroke-linecap="round"/>
</g>
</g>
<defs>
<filter id="filter0_d_897_3577" x="1" y="3.0293" width="22.1421" height="22.1421" filterUnits="userSpaceOnUse" color-interpolation-filters="sRGB">
<feFlood flood-opacity="0" result="BackgroundImageFix"/>
<feColorMatrix in="SourceAlpha" type="matrix" values="0 0 0 0 0 0 0 0 0 0 0 0 0 0 0 0 0 0 127 0" result="hardAlpha"/>
<feOffset dy="2"/>
<feGaussianBlur stdDeviation="1"/>
<feComposite in2="hardAlpha" operator="out"/>
<feColorMatrix type="matrix" values="0 0 0 0 0 0 0 0 0 0 0 0 0 0 0 0 0 0 0.2 0"/>
<feBlend mode="normal" in2="BackgroundImageFix" result="effect1_dropShadow_897_3577"/>
<feBlend mode="normal" in="SourceGraphic" in2="effect1_dropShadow_897_3577" result="shape"/>
</filter>
<clipPath id="clip0_897_3577">
<rect width="24" height="24" fill="white"/>
</clipPath>
</defs>
</svg>
